<?xml version="1.0" encoding="UTF-8" standalone="no"?>
<!DOCTYPE svg PUBLIC "-//W3C//DTD SVG 1.1//EN"
 "http://www.w3.org/Graphics/SVG/1.1/DTD/svg11.dtd">
<!-- Generated by graphviz version 9.0.0 (20230911.1827)
 -->
<!-- Title: G Pages: 1 -->
<svg width="429pt" height="304pt"
 viewBox="0.00 0.00 429.43 304.13" xmlns="http://www.w3.org/2000/svg" xmlns:xlink="http://www.w3.org/1999/xlink">
<g id="graph0" class="graph" transform="scale(1 1) rotate(0) translate(4 300.13)">
<title>G</title><style>.edge>path:hover{stroke-width:8}</style>
<polygon fill="white" stroke="none" points="-4,4 -4,-300.13 425.43,-300.13 425.43,4 -4,4"/>
<!-- csv -->
<g id="node1" class="node">
<title>csv</title><style>.edge>path:hover{stroke-width:8}</style>
<ellipse fill="#b65353" stroke="black" cx="27" cy="-199" rx="27" ry="18"/>
<text text-anchor="middle" x="27" y="-195.12" font-family="Helvetica,sans-Serif" font-size="10.00" fill="#ffffff">csv</text>
</g>
<!-- gui -->
<g id="node2" class="node">
<title>gui</title><style>.edge>path:hover{stroke-width:8}</style>
<ellipse fill="#818137" stroke="black" cx="172" cy="-127" rx="27" ry="18"/>
<text text-anchor="middle" x="172" y="-123.12" font-family="Helvetica,sans-Serif" font-size="10.00" fill="#ffffff">gui</text>
</g>
<!-- csv&#45;&gt;gui -->
<g id="edge1" class="edge">
<title>csv&#45;&gt;gui</title><style>.edge>path:hover{stroke-width:8}</style>
<path fill="none" stroke="black" d="M48.4,-187.67C72.7,-175.94 112.61,-156.67 140.48,-143.22"/>
<polygon fill="#b65353" stroke="black" points="141.67,-146.53 149.15,-139.03 138.63,-140.22 141.67,-146.53"/>
</g>
<!-- main_py -->
<g id="node4" class="node">
<title>main_py</title><style>.edge>path:hover{stroke-width:8}</style>
<ellipse fill="#59a6a6" stroke="black" cx="172" cy="-18" rx="29.88" ry="18"/>
<text text-anchor="middle" x="172" y="-14.12" font-family="Helvetica,sans-Serif" font-size="10.00" fill="#000000">main.py</text>
</g>
<!-- gui&#45;&gt;main_py -->
<g id="edge2" class="edge">
<title>gui&#45;&gt;main_py</title><style>.edge>path:hover{stroke-width:8}</style>
<path fill="none" stroke="black" d="M172,-108.81C172,-92.27 172,-66.98 172,-47.44"/>
<polygon fill="#818137" stroke="black" points="175.5,-47.66 172,-37.66 168.5,-47.66 175.5,-47.66"/>
</g>
<!-- inputs -->
<g id="node3" class="node">
<title>inputs</title><style>.edge>path:hover{stroke-width:8}</style>
<ellipse fill="#53b653" stroke="black" cx="99" cy="-199" rx="27" ry="18"/>
<text text-anchor="middle" x="99" y="-195.12" font-family="Helvetica,sans-Serif" font-size="10.00" fill="#000000">inputs</text>
</g>
<!-- inputs&#45;&gt;gui -->
<g id="edge3" class="edge">
<title>inputs&#45;&gt;gui</title><style>.edge>path:hover{stroke-width:8}</style>
<path fill="none" stroke="black" d="M113.77,-183.83C123.8,-174.22 137.26,-161.31 148.72,-150.32"/>
<polygon fill="#53b653" stroke="black" points="151.11,-152.88 155.91,-143.43 146.27,-147.83 151.11,-152.88"/>
</g>
<!-- models -->
<g id="node5" class="node">
<title>models</title><style>.edge>path:hover{stroke-width:8}</style>
<ellipse fill="#5353b6" stroke="black" cx="172" cy="-199" rx="28.11" ry="18"/>
<text text-anchor="middle" x="172" y="-195.12" font-family="Helvetica,sans-Serif" font-size="10.00" fill="#ffffff">models</text>
</g>
<!-- models&#45;&gt;gui -->
<g id="edge4" class="edge">
<title>models&#45;&gt;gui</title><style>.edge>path:hover{stroke-width:8}</style>
<path fill="none" stroke="black" d="M172,-180.7C172,-173.41 172,-164.73 172,-156.54"/>
<polygon fill="#5353b6" stroke="black" points="175.5,-156.62 172,-146.62 168.5,-156.62 175.5,-156.62"/>
</g>
<!-- tkinter -->
<g id="node6" class="node">
<title>tkinter</title><style>.edge>path:hover{stroke-width:8}</style>
<ellipse fill="#f30cf3" stroke="black" cx="245" cy="-199" rx="27" ry="18"/>
<text text-anchor="middle" x="245" y="-195.12" font-family="Helvetica,sans-Serif" font-size="10.00" fill="#ffffff">tkinter</text>
</g>
<!-- tkinter&#45;&gt;gui -->
<g id="edge5" class="edge">
<title>tkinter&#45;&gt;gui</title><style>.edge>path:hover{stroke-width:8}</style>
<path fill="none" stroke="black" d="M230.23,-183.83C220.2,-174.22 206.74,-161.31 195.28,-150.32"/>
<polygon fill="#f30cf3" stroke="black" points="197.73,-147.83 188.09,-143.43 192.89,-152.88 197.73,-147.83"/>
</g>
<!-- tkinter_colorchooser -->
<g id="node7" class="node">
<title>tkinter_colorchooser</title><style>.edge>path:hover{stroke-width:8}</style>
<ellipse fill="#b34cb3" stroke="black" cx="100" cy="-274.57" rx="50.56" ry="21.57"/>
<text text-anchor="middle" x="100" y="-276.32" font-family="Helvetica,sans-Serif" font-size="10.00" fill="#ffffff">tkinter.</text>
<text text-anchor="middle" x="100" y="-265.07" font-family="Helvetica,sans-Serif" font-size="10.00" fill="#ffffff">colorchooser</text>
</g>
<!-- tkinter_colorchooser&#45;&gt;gui -->
<g id="edge6" class="edge">
<title>tkinter_colorchooser&#45;&gt;gui</title><style>.edge>path:hover{stroke-width:8}</style>
<path fill="none" stroke="black" d="M300,-198C290.8,-158.9 243.88,-141.38 209.51,-133.71"/>
<polygon fill="#b34cb3" stroke="black" points="210.38,-130.32 199.89,-131.77 209,-137.18 210.38,-130.32"/>
<path fill="none" stroke="black" d="M138.33,-260.17C145.51,-257.73 152.97,-255.25 160,-253 223.37,-232.72 315.25,-264.76 300,-200"/>
</g>
<!-- tkinter_filedialog -->
<g id="node8" class="node">
<title>tkinter_filedialog</title><style>.edge>path:hover{stroke-width:8}</style>
<ellipse fill="#b34cb3" stroke="black" cx="207" cy="-274.57" rx="38.36" ry="21.57"/>
<text text-anchor="middle" x="207" y="-276.32" font-family="Helvetica,sans-Serif" font-size="10.00" fill="#ffffff">tkinter.</text>
<text text-anchor="middle" x="207" y="-265.07" font-family="Helvetica,sans-Serif" font-size="10.00" fill="#ffffff">filedialog</text>
</g>
<!-- tkinter_filedialog&#45;&gt;gui -->
<g id="edge7" class="edge">
<title>tkinter_filedialog&#45;&gt;gui</title><style>.edge>path:hover{stroke-width:8}</style>
<path fill="none" stroke="black" d="M234.33,-259.14C263.16,-242.94 303.94,-216.73 300,-200"/>
</g>
<!-- tkinter_font -->
<g id="node9" class="node">
<title>tkinter_font</title><style>.edge>path:hover{stroke-width:8}</style>
<ellipse fill="#b34cb3" stroke="black" cx="300" cy="-274.57" rx="36.54" ry="18"/>
<text text-anchor="middle" x="300" y="-270.69" font-family="Helvetica,sans-Serif" font-size="10.00" fill="#ffffff">tkinter.font</text>
</g>
<!-- tkinter_font&#45;&gt;gui -->
<g id="edge8" class="edge">
<title>tkinter_font&#45;&gt;gui</title><style>.edge>path:hover{stroke-width:8}</style>
<path fill="none" stroke="black" d="M302.2,-256.36C303.61,-241.29 304.45,-218.9 300,-200"/>
</g>
<!-- tkinter_ttk -->
<g id="node10" class="node">
<title>tkinter_ttk</title><style>.edge>path:hover{stroke-width:8}</style>
<ellipse fill="#b34cb3" stroke="black" cx="388" cy="-274.57" rx="33.43" ry="18"/>
<text text-anchor="middle" x="388" y="-270.69" font-family="Helvetica,sans-Serif" font-size="10.00" fill="#ffffff">tkinter.ttk</text>
</g>
<!-- tkinter_ttk&#45;&gt;gui -->
<g id="edge9" class="edge">
<title>tkinter_ttk&#45;&gt;gui</title><style>.edge>path:hover{stroke-width:8}</style>
<path fill="none" stroke="black" d="M367.06,-260.39C342.3,-244.15 303.92,-216.67 300,-200"/>
</g>
</g>
</svg>
